<svg xmlns="http://www.w3.org/2000/svg" viewBox="0 0 48 48" width="48" height="48">
  <!-- 흰 원형 배경 -->
  <circle cx="24" cy="24" r="24" fill="#ffffff" stroke="#e0e0e0" stroke-width="1"/>
  <!-- Google G 로고 -->
  <path fill="#4285F4" d="M35.5 24.3c0-.8-.1-1.6-.2-2.3H24v4.4h6.5c-.3 1.5-1.1 2.7-2.4 3.6v3h3.9c2.3-2.1 3.5-5.2 3.5-8.7z"/>
  <path fill="#34A853" d="M24 36c3.2 0 5.9-1.1 7.9-2.9l-3.9-3c-1.1.7-2.4 1.2-4 1.2-3.1 0-5.7-2.1-6.6-4.9h-4v3.1C15.5 33.5 19.5 36 24 36z"/>
  <path fill="#FBBC05" d="M17.4 26.4c-.2-.7-.4-1.5-.4-2.4s.1-1.6.4-2.4v-3.1h-4C12.5 20.4 12 22.1 12 24s.5 3.6 1.4 5.1l4-3.1-.4.4z" />
  <path fill="#EA4335" d="M24 16.7c1.8 0 3.4.6 4.6 1.8l3.4-3.4C29.9 13.1 27.2 12 24 12c-4.5 0-8.5 2.5-10.6 6.2l4 3.1c1-2.8 3.6-4.6 6.6-4.6z"/>
</svg>
